<svg height="60" viewBox="0 0 60 60" width="60" xmlns="http://www.w3.org/2000/svg"><g id="Page-1" fill="none" fill-rule="evenodd"><g id="003---Deadlines" fill="rgb(0,0,0)" fill-rule="nonzero"><path id="Shape" d="m54 27.182v-19.182c-.0033061-2.76005315-2.2399468-4.99669388-5-5h-6c0-1.65685425-1.3431458-3-3-3s-3 1.34314575-3 3h-20c0-1.65685422-1.3431458-2.99999994-3-2.99999994s-3 1.34314572-3 2.99999994h-6c-2.76005315.00330612-4.99669388 2.23994685-5 5v40c.00330612 2.7600532 2.23994685 4.9966939 5 5h21.285c4.4701023 5.500913 11.6326869 8.0529964 18.5740763 6.6180848 6.9413893-1.4349116 12.5050274-6.6177371 14.4276742-13.4401478 1.9226469-6.8224106-.1160439-14.1476743-5.2867505-18.995937zm-17-21.313v1.131c0 1.65685425 1.3431458 3 3 3s3-1.34314575 3-3v-1.131c.6348011.65400659.9929785 1.52760119 1 2.439-.1681855 2.0843921-1.9088336 3.6902478-4 3.6902478s-3.8318145-1.6058557-4-3.6902478c.0070215-.91139881.3651989-1.78499341 1-2.439zm2-2.869c0-.55228475.4477153-1 1-1s1 .44771525 1 1v4c0 .55228475-.4477153 1-1 1s-1-.44771525-1-1zm-28 2.869v1.131c0 1.65685422 1.3431458 2.99999994 3 2.99999994s3-1.34314572 3-2.99999994v-1.131c.6348011.65400659.9929785 1.52760119 1 2.439-.0904077 2.121609-1.8779548 3.771515-4 3.692-2.1220452.079515-3.9095923-1.570391-4-3.692.0070215-.91139881.3651989-1.78499341 1-2.439zm2-2.869c0-.55228475.4477153-1 1-1s1 .44771525 1 1v4c0 .55228475-.4477153 1-1 1s-1-.44771525-1-1zm-8 2h4.134c-.72872851.94944373-1.12696914 2.11115448-1.134 3.308.09102178 3.2259942 2.7736878 5.77095 6 5.692 3.2263122.07895 5.9089782-2.4660058 6-5.692-.0070309-1.19684552-.4052715-2.35855627-1.134-3.308h16.268c-.7287285.94944373-1.1269691 2.11115448-1.134 3.308.1649621 3.1934124 2.8023297 5.6980581 6 5.6980581s5.8350379-2.5046457 6-5.6980581c-.0070309-1.19684552-.4052715-2.35855627-1.134-3.308h4.134c1.6568542 0 3 1.34314575 3 3v8h-50v-8c0-1.65685425 1.34314575-3 3-3zm0 46c-1.65685425 0-3-1.3431458-3-3v-30h50v7.537c-5.2321176-3.757244-12.0211697-4.5809823-18-2.184v-1.353c0-1.1045695-.8954305-2-2-2h-4c-1.1045695 0-2 .8954305-2 2v3c0 1.1045695.8954305 2 2 2h.2c-6.7739473 6.1392657-8.1747561 16.250367-3.325 24zm25.794-26h-2.794v-3h4v2.273c-.414.227-.811.474-1.206.727zm10.206 33c-9.3888407 0-17-7.6111593-17-17s7.6111593-17 17-17 17 7.6111593 17 17c-.010471 9.3845001-7.6154999 16.989529-17 17z"/><path id="Shape" d="m41 26c-8.2842712 0-15 6.7157288-15 15s6.7157288 15 15 15 15-6.7157288 15-15c-.0312531-8.2712912-6.7287088-14.9687469-15-15zm7.343 25.718-.477-.826c-.1773616-.3119508-.5082732-.5049532-.8671183-.5057421s-.6906021.1907567-.8693336.5019247c-.1787314.3111679-.1770325.694247.0044519 1.0038174l.472.819c-1.444717.6962348-3.006908 1.1161203-4.606 1.238v-.949c0-.5522847-.4477153-1-1-1s-1 .4477153-1 1v.949c-1.599092-.1218797-3.161283-.5417652-4.606-1.238l.472-.819c.1814844-.3095704.1831833-.6926495.0044519-1.0038174-.1787315-.311168-.5104885-.5027136-.8693336-.5019247s-.6897567.1937913-.8671183.5057421l-.477.826c-1.3215732-.9095656-2.4654344-2.0534268-3.375-3.375l.826-.477c.4742136-.2780058.6351286-.886647.3602745-1.3626943-.274854-.4760473-.8824145-.640996-1.3602745-.3693057l-.819.472c-.6962348-1.444717-1.1161203-3.006908-1.238-4.606h.949c.5522847 0 1-.4477153 1-1s-.4477153-1-1-1h-.949c.1218797-1.599092.5417652-3.161283 1.238-4.606l.819.472c.3095704.1814844.6926495.1831833 1.0038174.0044519.311168-.1787315.5027136-.5104885.5019247-.8693336s-.1937913-.6897567-.5057421-.8671183l-.826-.477c.9095656-1.3215732 2.0534268-2.4654344 3.375-3.375l.477.826c.2780058.4742136.886647.6351286 1.3626943.3602745.4760473-.274854.640996-.8824145.3693057-1.3602745l-.472-.819c1.444717-.6962348 3.006908-1.1161203 4.606-1.238v.949c0 .5522847.4477153 1 1 1s1-.4477153 1-1v-.949c1.599092.1218797 3.161283.5417652 4.606 1.238l-.472.819c-.1814844.3095704-.1831833.6926495-.0044519 1.0038174.1787315.311168.5104885.5027136.8693336.5019247s.6897567-.1937913.8671183-.5057421l.477-.826c1.3215732.9095656 2.4654344 2.0534268 3.375 3.375l-.826.477c-.3119508.1773616-.5049532.5082732-.5057421.8671183s.1907567.6906021.5019247.8693336c.3111679.1787314.694247.1770325 1.0038174-.0044519l.819-.472c.6962348 1.444717 1.1161203 3.006908 1.238 4.606h-.949c-.5522847 0-1 .4477153-1 1s.4477153 1 1 1h.949c-.1218797 1.599092-.5417652 3.161283-1.238 4.606l-.819-.472c-.3095704-.1814844-.6926495-.1831833-1.0038174-.0044519-.311168.1787315-.5027136.5104885-.5019247.8693336s.1937913.6897567.5057421.8671183l.826.477c-.9095656 1.3215732-2.0534268 2.4654344-3.375 3.375z"/><path id="Shape" d="m42.186 40.771 2.733-6.377c.2082516-.505513-.0280796-1.0845653-.5305742-1.2999982-.5024946-.215433-1.0848553.012624-1.3074258.5119982l-3 7c-.1606169.3755529-.0766867.8110402.212 1.1l4 4c.3923789.3789722 1.0160848.3735524 1.4018186-.0121814s.3911536-1.0094397.0121814-1.4018186z"/><path id="Shape" d="m10 20h-4c-1.1045695 0-2 .8954305-2 2v3c0 1.1045695.8954305 2 2 2h4c1.1045695 0 2-.8954305 2-2v-3c0-1.1045695-.8954305-2-2-2zm-4 5v-3h4v3z"/><path id="Shape" d="m17 27h4c1.1045695 0 2-.8954305 2-2v-3c0-1.1045695-.8954305-2-2-2h-4c-1.1045695 0-2 .8954305-2 2v3c0 1.1045695.8954305 2 2 2zm0-5h4v3h-4z"/><path id="Shape" d="m10 30h-4c-1.1045695 0-2 .8954305-2 2v3c0 1.1045695.8954305 2 2 2h4c1.1045695 0 2-.8954305 2-2v-3c0-1.1045695-.8954305-2-2-2zm-4 5v-3h4v3z"/><path id="Shape" d="m21 30h-4c-1.1045695 0-2 .8954305-2 2v3c0 1.1045695.8954305 2 2 2h2c.5522847 0 1-.4477153 1-1s-.4477153-1-1-1h-2v-3h4c.5522847 0 1-.4477153 1-1s-.4477153-1-1-1z"/><path id="Shape" d="m10 40h-4c-1.1045695 0-2 .8954305-2 2v3c0 1.1045695.8954305 2 2 2h4c1.1045695 0 2-.8954305 2-2v-3c0-1.1045695-.8954305-2-2-2zm-4 5v-3h4v3z"/><path id="Shape" d="m20 45h-3v-3h2c.5522847 0 1-.4477153 1-1s-.4477153-1-1-1h-2c-1.1045695 0-2 .8954305-2 2v3c0 1.1045695.8954305 2 2 2h3c.5522847 0 1-.4477153 1-1s-.4477153-1-1-1z"/></g></g></svg>